<?xml version="1.0" encoding="utf-8"?>
<!-- Generator: Adobe Illustrator 23.0.1, SVG Export Plug-In . SVG Version: 6.00 Build 0)  -->
<svg version="1.1" id="Layer_1" xmlns="http://www.w3.org/2000/svg" xmlns:xlink="http://www.w3.org/1999/xlink" x="0px" y="0px"
	 viewBox="0 0 397.45 56.5" style="enable-background:new 0 0 397.45 56.5;" xml:space="preserve">
<style type="text/css">
	.st0{fill:#FFFFFF;}
	.st1{fill:#FBB040;}
</style>
<g>
	<g>
		<path d="M79.91,24.17v20.94h-7.16V10.16h7.16l11.7,22.2l10.98-22.2h7.16v34.95h-7.16V24.17L91.12,45.66L79.91,24.17z"/>
		<path d="M125.79,18.04l3.92,9.44l-2.05,7.03h4.87l2.96,7.03h-10.41l-1.15,3.57h-7.93L125.79,18.04z M127.42,13.57l1.29-3.42h5.25
			l14.47,34.95h-8.12L127.42,13.57z"/>
		<path d="M169.34,38.08h2.82c0.81,0,1.24-0.65,1.24-1.71v-5.22h-11.84c-4.3,0-7.78-2.71-7.78-7.88v-5.22
			c0-5.17,3.49-7.88,7.78-7.88h4.25v7.03h-3.2c-0.81,0-1.24,0.65-1.24,1.61v5.32h11.84c4.3,0,7.78,2.71,7.78,7.88v5.22
			c0,5.17-3.49,7.88-7.78,7.88h-3.87V38.08z M154.16,37.22v-2.36h7.59v1.51c0,1.05,0.43,1.71,1.24,1.71h2.82v7.03h-3.87
			C157.64,45.11,154.16,42.4,154.16,37.22z M173.26,18.79c0-0.95-0.43-1.61-1.24-1.61h-2.67v-7.03h3.72c4.3,0,7.78,2.71,7.78,7.88
			v1.91h-7.59V18.79z"/>
		<path d="M189.45,10.16h7.4v14.86h12.99V10.16h7.4v34.95h-7.4V32.05h-12.99v13.06h-7.4V10.16z"/>
		<path d="M226.6,10.16h7.4v34.95h-7.4V10.16z M237.15,38.08h7.59c0.81,0,1.24-0.65,1.24-1.71V31.4h-8.83v-6.83h8.83v-5.77
			c0-0.95-0.43-1.61-1.24-1.61h-7.59v-7.03h7.83c5.54,0,9.21,3.01,9.21,10.5c0,4.12-1.77,6.08-3.68,7.48
			c1.77,1.36,3.82,3.77,3.82,8.08c0,6.23-3.72,8.89-8.88,8.89h-8.31V38.08z"/>
		<path d="M261.79,37.22V18.04c0-5.17,3.49-7.88,7.78-7.88h4.44v7.03h-3.39c-0.81,0-1.24,0.65-1.24,1.61v17.58
			c0,1.05,0.43,1.71,1.24,1.71h3.39v7.03h-4.44C265.28,45.11,261.79,42.4,261.79,37.22z M277.55,45.11v-7.03h3.39
			c0.81,0,1.24-0.65,1.24-1.71V18.79c0-0.95-0.43-1.61-1.24-1.61h-3.39v-7.03h4.44c4.3,0,7.78,2.71,7.78,7.88v19.18
			c0,5.17-3.49,7.88-7.78,7.88H277.55z"/>
		<path d="M305.05,18.04l3.92,9.44l-2.05,7.03h4.87l2.96,7.03h-10.41l-1.15,3.57h-7.93L305.05,18.04z M306.68,13.57l1.29-3.42h5.25
			l14.47,34.95h-8.12L306.68,13.57z"/>
		<path d="M333.94,10.16h7.4v34.95h-7.4V10.16z M344.5,33.71v-7.78h9.26v-8.74h-9.26v-7.03h9.07c4.3,0,7.78,2.71,7.78,7.88v6.18
			c0,5.17-3.49,7.88-7.78,7.88h-1.34l9.55,13.01h-8.98L344.5,33.71z"/>
		<path d="M370.28,10.16h7.4v34.95h-7.4V10.16z M380.83,45.11v-7.03h7.78c0.81,0,1.24-0.65,1.24-1.71V18.79
			c0-0.95-0.43-1.61-1.24-1.61h-7.78v-7.03h8.83c4.3,0,7.78,2.71,7.78,7.88v19.18c0,5.17-3.49,7.88-7.78,7.88H380.83z"/>
	</g>
	<g>
		<rect x="1.22" y="1.22" class="st0" width="13.52" height="10.81"/>
		<path d="M15.96,13.25H0V0h15.96V13.25z M2.44,10.81h11.07V2.44H2.44V10.81z"/>
	</g>
	<g>
		<rect x="14.74" y="1.22" class="st0" width="13.52" height="10.81"/>
		<path d="M29.47,13.25H13.52V0h15.96V13.25z M15.96,10.81h11.07V2.44H15.96V10.81z"/>
	</g>
	<g>
		<rect x="28.25" y="1.22" class="st0" width="13.52" height="10.81"/>
		<path d="M42.99,13.25H27.03V0h15.96V13.25z M29.47,10.81h11.07V2.44H29.47V10.81z"/>
	</g>
	<g>
		<rect x="41.77" y="1.22" class="st0" width="13.52" height="10.81"/>
		<path d="M56.5,13.25H40.55V0H56.5V13.25z M42.99,10.81h11.07V2.44H42.99V10.81z"/>
	</g>
	<g>
		<rect x="1.22" y="12.03" class="st0" width="13.52" height="10.81"/>
		<path d="M15.96,24.07H0V10.81h15.96V24.07z M2.44,21.62h11.07v-8.37H2.44V21.62z"/>
	</g>
	<g>
		<rect x="14.74" y="12.03" class="st0" width="13.52" height="10.81"/>
		<path d="M29.47,24.07H13.52V10.81h15.96V24.07z M15.96,21.62h11.07v-8.37H15.96V21.62z"/>
	</g>
	<g>
		<rect x="28.25" y="12.03" class="st0" width="13.52" height="10.81"/>
		<path d="M42.99,24.07H27.03V10.81h15.96V24.07z M29.47,21.62h11.07v-8.37H29.47V21.62z"/>
	</g>
	<g>
		<rect x="41.77" y="12.03" class="st0" width="13.52" height="10.81"/>
		<path d="M56.5,24.07H40.55V10.81H56.5V24.07z M42.99,21.62h11.07v-8.37H42.99V21.62z"/>
	</g>
	<g>
		<rect x="1.22" y="22.85" class="st1" width="13.52" height="10.81"/>
		<path d="M15.96,34.88H0V21.62h15.96V34.88z M2.44,32.44h11.07v-8.37H2.44V32.44z"/>
	</g>
	<g>
		<rect x="14.74" y="22.85" class="st1" width="13.52" height="10.81"/>
		<path d="M29.47,34.88H13.52V21.62h15.96V34.88z M15.96,32.44h11.07v-8.37H15.96V32.44z"/>
	</g>
	<g>
		<rect x="28.25" y="22.85" class="st1" width="13.52" height="10.81"/>
		<path d="M42.99,34.88H27.03V21.62h15.96V34.88z M29.47,32.44h11.07v-8.37H29.47V32.44z"/>
	</g>
	<g>
		<rect x="41.77" y="22.85" class="st1" width="13.52" height="10.81"/>
		<path d="M56.5,34.88H40.55V21.62H56.5V34.88z M42.99,32.44h11.07v-8.37H42.99V32.44z"/>
	</g>
	<g>
		<rect x="1.22" y="33.66" class="st1" width="13.52" height="10.81"/>
		<path d="M15.96,45.69H0V32.44h15.96V45.69z M2.44,43.25h11.07v-8.37H2.44V43.25z"/>
	</g>
	<g>
		<rect x="14.74" y="33.66" class="st1" width="13.52" height="10.81"/>
		<path d="M29.47,45.69H13.52V32.44h15.96V45.69z M15.96,43.25h11.07v-8.37H15.96V43.25z"/>
	</g>
	<g>
		<rect x="28.25" y="33.66" class="st1" width="13.52" height="10.81"/>
		<path d="M42.99,45.69H27.03V32.44h15.96V45.69z M29.47,43.25h11.07v-8.37H29.47V43.25z"/>
	</g>
	<g>
		<rect x="41.77" y="33.66" class="st1" width="13.52" height="10.81"/>
		<path d="M56.5,45.69H40.55V32.44H56.5V45.69z M42.99,43.25h11.07v-8.37H42.99V43.25z"/>
	</g>
	<g>
		<rect x="1.22" y="44.47" class="st1" width="13.52" height="10.81"/>
		<path d="M15.96,56.5H0V43.25h15.96V56.5z M2.44,54.06h11.07v-8.37H2.44V54.06z"/>
	</g>
	<g>
		<rect x="14.74" y="44.47" class="st1" width="13.52" height="10.81"/>
		<path d="M29.47,56.5H13.52V43.25h15.96V56.5z M15.96,54.06h11.07v-8.37H15.96V54.06z"/>
	</g>
	<g>
		<rect x="28.25" y="44.47" class="st1" width="13.52" height="10.81"/>
		<path d="M42.99,56.5H27.03V43.25h15.96V56.5z M29.47,54.06h11.07v-8.37H29.47V54.06z"/>
	</g>
	<g>
		<rect x="41.77" y="44.47" class="st1" width="13.52" height="10.81"/>
		<path d="M56.5,56.5H40.55V43.25H56.5V56.5z M42.99,54.06h11.07v-8.37H42.99V54.06z"/>
	</g>
	<g>
		
			<rect x="35.86" y="27.75" transform="matrix(0.7071 0.7071 -0.7071 0.7071 36.0336 -19.6755)" class="st0" width="11.82" height="11.82"/>
		<path d="M41.77,43.74L31.68,33.66l10.08-10.08l10.08,10.08L41.77,43.74z M35.14,33.66l6.63,6.63l6.63-6.63l-6.63-6.63L35.14,33.66
			z"/>
	</g>
	<g>
		
			<rect x="8.83" y="16.94" transform="matrix(0.7071 0.7071 -0.7071 0.7071 20.4708 -3.7284)" class="st0" width="11.82" height="11.82"/>
		<path d="M14.74,32.93L4.65,22.85l10.08-10.08l10.08,10.08L14.74,32.93z M8.11,22.85l6.63,6.63l6.63-6.63l-6.63-6.63L8.11,22.85z"
			/>
	</g>
</g>
</svg>
